<mxfile host="app.diagrams.net" modified="2021-10-26T00:20:43.363Z" agent="5.0 (Windows NT 10.0; Win64; x64) AppleWebKit/537.36 (KHTML, like Gecko) Chrome/94.0.4606.81 Safari/537.36 OPR/80.0.4170.63" etag="Nz42S-t2GbwGruM-VUgh" version="15.5.6" type="github">
  <diagram id="DN5aOqPNuUpptSyLosvj" name="Page-1">
    <mxGraphModel dx="828" dy="493" grid="1" gridSize="10" guides="1" tooltips="1" connect="1" arrows="1" fold="1" page="1" pageScale="1" pageWidth="1169" pageHeight="827" math="0" shadow="0">
      <root>
        <mxCell id="0" />
        <mxCell id="1" parent="0" />
        <mxCell id="MTX2792UNsKBws1nsAEz-7" style="edgeStyle=orthogonalEdgeStyle;rounded=0;orthogonalLoop=1;jettySize=auto;html=1;exitX=0.25;exitY=1;exitDx=0;exitDy=0;entryX=0.5;entryY=0;entryDx=0;entryDy=0;" edge="1" parent="1" source="MTX2792UNsKBws1nsAEz-1" target="MTX2792UNsKBws1nsAEz-4">
          <mxGeometry relative="1" as="geometry" />
        </mxCell>
        <mxCell id="MTX2792UNsKBws1nsAEz-8" style="edgeStyle=orthogonalEdgeStyle;rounded=0;orthogonalLoop=1;jettySize=auto;html=1;exitX=0.75;exitY=1;exitDx=0;exitDy=0;entryX=0.5;entryY=0;entryDx=0;entryDy=0;" edge="1" parent="1" source="MTX2792UNsKBws1nsAEz-1" target="MTX2792UNsKBws1nsAEz-6">
          <mxGeometry relative="1" as="geometry" />
        </mxCell>
        <mxCell id="MTX2792UNsKBws1nsAEz-1" value="START" style="rounded=1;whiteSpace=wrap;html=1;" vertex="1" parent="1">
          <mxGeometry x="40" y="40" width="160" height="90" as="geometry" />
        </mxCell>
        <mxCell id="MTX2792UNsKBws1nsAEz-9" style="edgeStyle=orthogonalEdgeStyle;rounded=0;orthogonalLoop=1;jettySize=auto;html=1;exitX=0.5;exitY=1;exitDx=0;exitDy=0;entryX=0.5;entryY=0;entryDx=0;entryDy=0;" edge="1" parent="1" source="MTX2792UNsKBws1nsAEz-4" target="MTX2792UNsKBws1nsAEz-12">
          <mxGeometry relative="1" as="geometry">
            <mxPoint x="120" y="360" as="targetPoint" />
          </mxGeometry>
        </mxCell>
        <mxCell id="MTX2792UNsKBws1nsAEz-4" value="REAL: VEL" style="whiteSpace=wrap;html=1;aspect=fixed;" vertex="1" parent="1">
          <mxGeometry x="30" y="220" width="62.5" height="62.5" as="geometry" />
        </mxCell>
        <mxCell id="MTX2792UNsKBws1nsAEz-10" style="edgeStyle=orthogonalEdgeStyle;rounded=0;orthogonalLoop=1;jettySize=auto;html=1;exitX=0.5;exitY=1;exitDx=0;exitDy=0;entryX=0.5;entryY=0;entryDx=0;entryDy=0;" edge="1" parent="1" source="MTX2792UNsKBws1nsAEz-6" target="MTX2792UNsKBws1nsAEz-12">
          <mxGeometry relative="1" as="geometry">
            <mxPoint x="120" y="360" as="targetPoint" />
          </mxGeometry>
        </mxCell>
        <mxCell id="MTX2792UNsKBws1nsAEz-6" value="STR: PLACA" style="whiteSpace=wrap;html=1;aspect=fixed;" vertex="1" parent="1">
          <mxGeometry x="150" y="220" width="62.5" height="62.5" as="geometry" />
        </mxCell>
        <mxCell id="MTX2792UNsKBws1nsAEz-13" style="edgeStyle=orthogonalEdgeStyle;rounded=0;orthogonalLoop=1;jettySize=auto;html=1;exitX=1;exitY=0.5;exitDx=0;exitDy=0;" edge="1" parent="1" source="MTX2792UNsKBws1nsAEz-12" target="MTX2792UNsKBws1nsAEz-14">
          <mxGeometry relative="1" as="geometry">
            <mxPoint x="300" y="410" as="targetPoint" />
          </mxGeometry>
        </mxCell>
        <mxCell id="MTX2792UNsKBws1nsAEz-12" value="LEIA: PLACA&lt;br&gt;LEIA: VEL" style="rounded=0;whiteSpace=wrap;html=1;" vertex="1" parent="1">
          <mxGeometry x="75" y="380" width="90" height="60" as="geometry" />
        </mxCell>
        <mxCell id="MTX2792UNsKBws1nsAEz-15" style="edgeStyle=orthogonalEdgeStyle;rounded=0;orthogonalLoop=1;jettySize=auto;html=1;exitX=1;exitY=0.5;exitDx=0;exitDy=0;" edge="1" parent="1" source="MTX2792UNsKBws1nsAEz-14" target="MTX2792UNsKBws1nsAEz-16">
          <mxGeometry relative="1" as="geometry">
            <mxPoint x="470" y="350" as="targetPoint" />
          </mxGeometry>
        </mxCell>
        <mxCell id="MTX2792UNsKBws1nsAEz-17" style="edgeStyle=orthogonalEdgeStyle;rounded=0;orthogonalLoop=1;jettySize=auto;html=1;exitX=0.5;exitY=0;exitDx=0;exitDy=0;" edge="1" parent="1" source="MTX2792UNsKBws1nsAEz-14">
          <mxGeometry relative="1" as="geometry">
            <mxPoint x="350" y="230" as="targetPoint" />
          </mxGeometry>
        </mxCell>
        <mxCell id="MTX2792UNsKBws1nsAEz-14" value="IF VEL &amp;gt; 60" style="rhombus;whiteSpace=wrap;html=1;" vertex="1" parent="1">
          <mxGeometry x="310" y="310" width="80" height="80" as="geometry" />
        </mxCell>
        <mxCell id="MTX2792UNsKBws1nsAEz-16" value="WRITE: MULTA DE EXCESSO DE VELOCIDADE PARA: PLACA" style="shape=parallelogram;perimeter=parallelogramPerimeter;whiteSpace=wrap;html=1;fixedSize=1;" vertex="1" parent="1">
          <mxGeometry x="450" y="320" width="250" height="60" as="geometry" />
        </mxCell>
      </root>
    </mxGraphModel>
  </diagram>
</mxfile>
